<?xml version="1.0" encoding="UTF-8"?>
<svg id="Layer_2" data-name="Layer 2" xmlns="http://www.w3.org/2000/svg" viewBox="0 0 792.6 235.16">
  <defs>
    <style>
      .cls-1 {
        fill: #000;
      }

      .cls-1, .cls-2, .cls-3, .cls-4, .cls-5 {
        stroke-width: 0px;
      }

      .cls-2 {
        fill: blue;
      }

      .cls-3 {
        fill: aqua;
      }

      .cls-4 {
        fill: #005499;
      }

      .cls-5 {
        fill: #fff;
      }
    </style>
  </defs>
  <g id="Capa_3" data-name="Capa 3">
    <path class="cls-1" d="M229.16,120.58c0,63.28-51.3,114.58-114.58,114.58S0,183.86,0,120.58,51.3,6,114.58,6s114.58,51.3,114.58,114.58ZM114.58,19.98c-55.56,0-100.6,45.04-100.6,100.6s45.04,100.6,100.6,100.6,100.6-45.04,100.6-100.6S170.14,19.98,114.58,19.98Z"/>
    <circle class="cls-1" cx="114.58" cy="120.58" r="12.6"/>
    <circle class="cls-1" cx="196.39" cy="120.58" r="11"/>
    <circle class="cls-1" cx="30.02" cy="120.58" r="11"/>
    <circle class="cls-1" cx="114.58" cy="35.1" r="11"/>
    <path class="cls-1" d="M25.15,151.63h178.86c1.43-4.12,2.58-8.36,3.44-12.72H21.71c.85,4.35,2.01,8.6,3.44,12.72Z"/>
    <path class="cls-1" d="M32.42,167.58h164.33c2.33-4.06,4.36-8.31,6.08-12.72H26.34c1.71,4.41,3.75,8.66,6.08,12.72Z"/>
    <path class="cls-1" d="M43.92,183.54h141.33c3.53-3.95,6.72-8.21,9.55-12.72H34.36c2.83,4.51,6.03,8.76,9.55,12.72Z"/>
    <path class="cls-1" d="M46.94,186.78c4.66,4.76,9.81,9.02,15.37,12.72h104.52c5.57-3.69,10.72-7.96,15.37-12.72H46.94Z"/>
    <path class="cls-1" d="M114.58,215.22c17.11,0,33.16-4.54,47.02-12.49h-94.03c13.85,7.94,29.9,12.49,47.02,12.49Z"/>
    <circle class="cls-1" cx="188.61" cy="77.84" r="6.42"/>
    <circle class="cls-1" cx="157.32" cy="46.56" r="6.42"/>
    <circle class="cls-1" cx="40.56" cy="77.84" r="6.42"/>
    <circle class="cls-1" cx="71.84" cy="46.56" r="6.42"/>
    <rect class="cls-1" x="108.97" y="52.98" width="11.23" height="50.87"/>
    <rect class="cls-1" x="125.66" y="93.88" width="50.87" height="11.23" transform="translate(-29.51 88.88) rotate(-30)"/>
    <g>
      <path class="cls-1" d="M289.17,76.59h9.65l34.98,34.98,35.22-34.98h9.41v87.81h-13.99v-64.65l-30.64,29.43-30.64-29.43v64.65h-13.99v-87.81Z"/>
      <path class="cls-1" d="M425.71,122.91l-37.63-46.32h17.13l27.74,34.98,27.5-34.98h17.13l-37.63,46.32v41.49h-14.23v-41.49Z"/>
      <path class="cls-1" d="M514.97,89.14h-32.33v-12.54h78.65v12.54h-32.33v75.27h-13.99v-75.27Z"/>
      <path class="cls-1" d="M573.1,76.59h14.23v87.81h-14.23v-87.81Z"/>
      <path class="cls-1" d="M603.74,76.59h9.65l34.98,34.98,35.22-34.98h9.41v87.81h-13.99v-64.65l-30.64,29.43-30.64-29.43v64.65h-13.99v-87.81Z"/>
      <path class="cls-1" d="M709.4,76.59h77.2v12.54h-62.96v25.09h62v12.54h-62v25.09h62.96v12.54h-77.2v-87.81Z"/>
    </g>
    <rect class="cls-1" x="289.16" y="172.01" width="497" height="7"/>
    <rect class="cls-1" x="289.16" y="185.01" width="497" height="7"/>
  </g>
  <g id="Capa_1" data-name="Capa 1">
    <path class="cls-5" d="M232.16,114.58c0,63.28-51.3,114.58-114.58,114.58S3,177.86,3,114.58,54.3,0,117.58,0s114.58,51.3,114.58,114.58ZM117.58,13.98c-55.56,0-100.6,45.04-100.6,100.6s45.04,100.6,100.6,100.6,100.6-45.04,100.6-100.6S173.14,13.98,117.58,13.98Z"/>
    <circle class="cls-5" cx="117.58" cy="114.58" r="12.6"/>
    <circle class="cls-5" cx="199.39" cy="114.58" r="11"/>
    <circle class="cls-5" cx="33.02" cy="114.58" r="11"/>
    <circle class="cls-5" cx="117.58" cy="29.1" r="11"/>
    <path class="cls-3" d="M28.15,145.63h178.86c1.43-4.12,2.58-8.36,3.44-12.72H24.71c.85,4.35,2.01,8.6,3.44,12.72Z"/>
    <path class="cls-3" d="M35.42,161.58h164.33c2.33-4.06,4.36-8.31,6.08-12.72H29.34c1.71,4.41,3.75,8.66,6.08,12.72Z"/>
    <path class="cls-3" d="M46.92,177.54h141.33c3.53-3.95,6.72-8.21,9.55-12.72H37.36c2.83,4.51,6.03,8.76,9.55,12.72Z"/>
    <path class="cls-3" d="M49.94,180.78c4.66,4.76,9.81,9.02,15.37,12.72h104.52c5.57-3.69,10.72-7.96,15.37-12.72H49.94Z"/>
    <path class="cls-2" d="M117.58,209.22c17.11,0,33.16-4.54,47.02-12.49h-94.03c13.85,7.94,29.9,12.49,47.02,12.49Z"/>
    <circle class="cls-5" cx="191.61" cy="71.84" r="6.42"/>
    <circle class="cls-5" cx="160.32" cy="40.56" r="6.42"/>
    <circle class="cls-5" cx="43.56" cy="71.84" r="6.42"/>
    <circle class="cls-5" cx="74.84" cy="40.56" r="6.42"/>
    <rect class="cls-5" x="111.97" y="46.98" width="11.23" height="50.87"/>
    <rect class="cls-5" x="128.66" y="87.88" width="50.87" height="11.23" transform="translate(-26.1 89.57) rotate(-30)"/>
    <g>
      <path class="cls-5" d="M295.17,73.59h9.65l34.98,34.98,35.22-34.98h9.41v87.81h-13.99v-64.65l-30.64,29.43-30.64-29.43v64.65h-13.99v-87.81Z"/>
      <path class="cls-5" d="M431.71,119.91l-37.63-46.32h17.13l27.74,34.98,27.5-34.98h17.13l-37.63,46.32v41.49h-14.23v-41.49Z"/>
      <path class="cls-5" d="M520.97,86.14h-32.33v-12.54h78.65v12.54h-32.33v75.27h-13.99v-75.27Z"/>
      <path class="cls-5" d="M579.1,73.59h14.23v87.81h-14.23v-87.81Z"/>
      <path class="cls-5" d="M609.74,73.59h9.65l34.98,34.98,35.22-34.98h9.41v87.81h-13.99v-64.65l-30.64,29.43-30.64-29.43v64.65h-13.99v-87.81Z"/>
      <path class="cls-5" d="M715.4,73.59h77.2v12.54h-62.96v25.09h62v12.54h-62v25.09h62.96v12.54h-77.2v-87.81Z"/>
    </g>
    <rect class="cls-3" x="295.16" y="169.01" width="497" height="7"/>
    <rect class="cls-4" x="295.16" y="182.01" width="497" height="7"/>
  </g>
</svg>