<?xml version="1.0" encoding="UTF-8"?>
<svg id="Layer_2" data-name="Layer 2" xmlns="http://www.w3.org/2000/svg" viewBox="0 0 470 481">
  <defs>
    <style>
      .cls-1 {
        fill: #000;
      }

      .cls-1, .cls-2, .cls-3, .cls-4 {
        stroke-width: 0px;
      }

      .cls-2 {
        fill: aqua;
      }

      .cls-3 {
        fill: none;
      }

      .cls-4 {
        fill: #fff;
      }
    </style>
  </defs>
  <g id="Capa_2" data-name="Capa 2">
    <rect class="cls-3" width="470" height="481"/>
  </g>
  <g id="Capa_3" data-name="Capa 3">
    <path class="cls-1" d="M371.88,251.32c0,75.53-62.14,136.76-138.8,136.76s-138.8-61.23-138.8-136.76,62.14-136.76,138.8-136.76,138.8,61.23,138.8,136.76ZM233.09,131.25c-67.3,0-121.86,53.76-121.86,120.07s54.56,120.07,121.86,120.07,121.86-53.76,121.86-120.07-54.56-120.07-121.86-120.07Z"/>
    <ellipse class="cls-1" cx="233.09" cy="251.32" rx="15.27" ry="15.04"/>
    <ellipse class="cls-1" cx="332.19" cy="251.32" rx="13.32" ry="13.13"/>
    <ellipse class="cls-1" cx="130.65" cy="251.32" rx="13.32" ry="13.13"/>
    <ellipse class="cls-1" cx="233.09" cy="149.3" rx="13.32" ry="13.13"/>
    <path class="cls-1" d="M124.75,288.38h216.66c1.73-4.91,3.13-9.98,4.16-15.18H120.59c1.03,5.2,2.43,10.26,4.16,15.18Z"/>
    <path class="cls-1" d="M133.56,307.42h199.06c2.82-4.84,5.28-9.91,7.36-15.18H126.2c2.08,5.26,4.54,10.33,7.36,15.18Z"/>
    <path class="cls-1" d="M147.49,326.47h171.2c4.27-4.72,8.15-9.8,11.57-15.18h-194.34c3.43,5.38,7.3,10.46,11.57,15.18Z"/>
    <path class="cls-1" d="M151.16,330.34c5.64,5.68,11.88,10.77,18.62,15.18h126.61c6.74-4.41,12.98-9.5,18.62-15.18h-163.86Z"/>
    <path class="cls-1" d="M233.09,364.28c20.73,0,40.17-5.42,56.95-14.9h-113.9c16.78,9.48,36.22,14.9,56.95,14.9Z"/>
    <path class="cls-1" d="M326.64,206.94c-3.72,2.11-8.47.86-10.62-2.8s-.87-8.35,2.84-10.46c3.72-2.11,8.47-.86,10.62,2.8,2.15,3.66.87,8.35-2.84,10.46Z"/>
    <path class="cls-1" d="M291.59,166.8c-2.15,3.66-6.9,4.92-10.62,2.8s-4.99-6.8-2.84-10.46c2.15-3.66,6.9-4.92,10.62-2.8,3.72,2.11,4.99,6.8,2.84,10.46Z"/>
    <path class="cls-1" d="M147.3,193.68c3.72,2.11,4.99,6.8,2.84,10.46-2.15,3.66-6.9,4.92-10.62,2.8-3.72-2.11-4.99-6.8-2.84-10.46,2.15-3.66,6.9-4.92,10.62-2.8Z"/>
    <path class="cls-1" d="M188.05,159.14c2.15,3.66.87,8.35-2.84,10.46-3.72,2.11-8.47.86-10.62-2.8-2.15-3.66-.87-8.35,2.84-10.46,3.72-2.11,8.47-.86,10.62,2.8Z"/>
    <rect class="cls-1" x="226.29" y="170.63" width="13.6" height="60.72"/>
    <polygon class="cls-1" points="254.04 247.14 247.23 235.53 300.6 205.17 307.4 216.78 254.04 247.14"/>
  </g>
  <g id="Capa_1" data-name="Capa 1">
    <path class="cls-4" d="M375.52,244.16c0,75.53-62.14,136.76-138.8,136.76s-138.8-61.23-138.8-136.76,62.14-136.76,138.8-136.76,138.8,61.23,138.8,136.76ZM236.72,124.09c-67.3,0-121.86,53.76-121.86,120.07s54.56,120.07,121.86,120.07,121.86-53.76,121.86-120.07-54.56-120.07-121.86-120.07Z"/>
    <ellipse class="cls-4" cx="236.72" cy="244.16" rx="15.27" ry="15.04"/>
    <ellipse class="cls-4" cx="335.82" cy="244.16" rx="13.32" ry="13.13"/>
    <ellipse class="cls-4" cx="134.29" cy="244.16" rx="13.32" ry="13.13"/>
    <ellipse class="cls-4" cx="236.72" cy="142.14" rx="13.32" ry="13.13"/>
    <path class="cls-2" d="M128.39,281.22h216.66c1.73-4.91,3.13-9.98,4.16-15.18H124.23c1.03,5.2,2.43,10.26,4.16,15.18Z"/>
    <path class="cls-2" d="M137.19,300.26h199.06c2.82-4.84,5.28-9.91,7.36-15.18h-213.77c2.08,5.26,4.54,10.33,7.36,15.18Z"/>
    <path class="cls-2" d="M151.12,319.31h171.2c4.27-4.72,8.15-9.8,11.57-15.18h-194.34c3.43,5.38,7.3,10.46,11.57,15.18Z"/>
    <path class="cls-2" d="M154.79,323.17c5.64,5.68,11.88,10.77,18.62,15.18h126.61c6.74-4.41,12.98-9.5,18.62-15.18h-163.86Z"/>
    <path class="cls-2" d="M236.72,357.12c20.73,0,40.17-5.42,56.95-14.9h-113.9c16.78,9.48,36.22,14.9,56.95,14.9Z"/>
    <path class="cls-4" d="M330.28,199.78c-3.72,2.11-8.47.86-10.62-2.8s-.87-8.35,2.84-10.46c3.72-2.11,8.47-.86,10.62,2.8,2.15,3.66.87,8.35-2.84,10.46Z"/>
    <path class="cls-4" d="M295.22,159.64c-2.15,3.66-6.9,4.92-10.62,2.8s-4.99-6.8-2.84-10.46c2.15-3.66,6.9-4.92,10.62-2.8,3.72,2.11,4.99,6.8,2.84,10.46Z"/>
    <path class="cls-4" d="M150.94,186.52c3.72,2.11,4.99,6.8,2.84,10.46-2.15,3.66-6.9,4.92-10.62,2.8-3.72-2.11-4.99-6.8-2.84-10.46,2.15-3.66,6.9-4.92,10.62-2.8Z"/>
    <path class="cls-4" d="M191.68,151.98c2.15,3.66.87,8.35-2.84,10.46s-8.47.86-10.62-2.8c-2.15-3.66-.87-8.35,2.84-10.46s8.47-.86,10.62,2.8Z"/>
    <rect class="cls-4" x="229.92" y="163.47" width="13.6" height="60.72"/>
    <polygon class="cls-4" points="257.67 239.98 250.87 228.37 304.24 198.01 311.04 209.62 257.67 239.98"/>
  </g>
</svg>